<?xml version="1.0" encoding="UTF-8"?>
<svg width="38px" height="38px" viewBox="0 0 38 38" version="1.1" xmlns="http://www.w3.org/2000/svg" xmlns:xlink="http://www.w3.org/1999/xlink">
    <!-- Generator: Sketch 48.2 (47327) - http://www.bohemiancoding.com/sketch -->
    <title>icon close</title>
    <desc>Created with Sketch.</desc>
    <defs></defs>
    <g id="presentation-scr-3" stroke="none" stroke-width="1" fill="none" fill-rule="evenodd" transform="translate(-1386.000000, -16.000000)">
        <g id="icon-close" transform="translate(1386.000000, 16.000000)">
            <circle id="Oval-10" fill="#ECEFF4" cx="19" cy="19" r="19"></circle>
            <path d="M24.5955871,15.3757359 C25.134335,14.836988 25.133576,13.962746 24.5969655,13.4261355 L24.5738645,13.4030345 C24.0358779,12.8650479 23.162873,12.865804 22.6242641,13.4044129 L19.1860128,16.8426643 C19.0832807,16.9453963 18.9162361,16.9449132 18.8139872,16.8426643 L15.3757359,13.4044129 C14.836988,12.865665 13.962746,12.866424 13.4261355,13.4030345 L13.4030345,13.4261355 C12.8650479,13.9641221 12.865804,14.837127 13.4044129,15.3757359 L16.8426643,18.8139872 C16.9453963,18.9167193 16.9449132,19.0837639 16.8426643,19.1860128 L13.4044129,22.6242641 C12.865665,23.163012 12.866424,24.037254 13.4030345,24.5738645 L13.4261355,24.5969655 C13.9641221,25.1349521 14.837127,25.134196 15.3757359,24.5955871 L18.8139872,21.1573357 C18.9167193,21.0546037 19.0837639,21.0550868 19.1860128,21.1573357 L22.6242641,24.5955871 C23.163012,25.134335 24.037254,25.133576 24.5738645,24.5969655 L24.5969655,24.5738645 C25.1349521,24.0358779 25.134196,23.162873 24.5955871,22.6242641 L21.1573357,19.1860128 C21.0546037,19.0832807 21.0550868,18.9162361 21.1573357,18.8139872 L24.5955871,15.3757359 Z" id="Shape" fill="#282E3D" fill-rule="nonzero" opacity="0.800000012"></path>
        </g>
    </g>
</svg>