<?xml version="1.0" encoding="UTF-8"?>
<svg width="38px" height="38px" viewBox="0 0 38 38" version="1.1" xmlns="http://www.w3.org/2000/svg" xmlns:xlink="http://www.w3.org/1999/xlink">
    <!-- Generator: Sketch 48.2 (47327) - http://www.bohemiancoding.com/sketch -->
    <title>icon close</title>
    <desc>Created with Sketch.</desc>
    <defs></defs>
    <g id="presentation-scr-3" stroke="none" stroke-width="1" fill="none" fill-rule="evenodd" transform="translate(-1386.000000, -16.000000)">
        <g id="icon-close" transform="translate(1386.000000, 16.000000)">
            <circle id="Oval-10" fill="#383E4C" cx="19" cy="19" r="19"></circle>
            <path d="M24.906453,15.1743879 C25.4751314,14.6057095 25.4743302,13.6828986 24.907908,13.1164763 L24.8835237,13.092092 C24.3156489,12.5242172 23.3941437,12.5250154 22.8256121,13.093547 L19.1963468,16.7228123 C19.0879075,16.8312517 18.9115826,16.8307417 18.8036532,16.7228123 L15.1743879,13.093547 C14.6057095,12.5248686 13.6828986,12.5256698 13.1164763,13.092092 L13.092092,13.1164763 C12.5242172,13.6843511 12.5250154,14.6058563 13.093547,15.1743879 L16.7228123,18.8036532 C16.8312517,18.9120925 16.8307417,19.0884174 16.7228123,19.1963468 L13.093547,22.8256121 C12.5248686,23.3942905 12.5256698,24.3171014 13.092092,24.8835237 L13.1164763,24.907908 C13.6843511,25.4757828 14.6058563,25.4749846 15.1743879,24.906453 L18.8036532,21.2771877 C18.9120925,21.1687483 19.0884174,21.1692583 19.1963468,21.2771877 L22.8256121,24.906453 C23.3942905,25.4751314 24.3171014,25.4743302 24.8835237,24.907908 L24.907908,24.8835237 C25.4757828,24.3156489 25.4749846,23.3941437 24.906453,22.8256121 L21.2771877,19.1963468 C21.1687483,19.0879075 21.1692583,18.9115826 21.2771877,18.8036532 L24.906453,15.1743879 Z" id="Shape" fill="#FFFFFF" fill-rule="nonzero"></path>
        </g>
    </g>
</svg>