<svg xmlns="http://www.w3.org/2000/svg" width="110" height="105" viewBox="0 0 110 105">
    <path fill="#3454D1" fill-rule="evenodd" d="M83.672 84.83c9.193-7.7 15.039-19.264 15.039-32.193 0-23.181-18.792-41.973-41.973-41.973-19.268 0-35.505 12.984-40.436 30.68a13.065 13.065 0 0 0-6.458-1.696c-1.52 0-2.98.259-4.337.734C10.977 17.229 31.777 0 56.602 0c28.995 0 52.5 23.505 52.5 52.5S85.597 105 56.602 105c-24.61 0-45.266-16.934-50.95-39.785a13.11 13.11 0 0 0 4.192.683c2.375 0 4.602-.63 6.524-1.734 2.562 8.986 8.042 16.742 15.35 22.177V55.78h11.485V92.38a41.732 41.732 0 0 0 8.75 1.96V43.478h11.484v50.6a41.671 41.671 0 0 0 8.75-2.402V31.992h11.485V84.83zM9.98 62.616c-5.512 0-9.98-4.468-9.98-9.98 0-5.512 4.468-9.98 9.98-9.98 5.513 0 9.98 4.468 9.98 9.98 0 5.512-4.467 9.98-9.98 9.98zm0-7.383a2.598 2.598 0 1 0 0-5.195 2.598 2.598 0 0 0 0 5.195z"/>
</svg>
